<svg width="29" height="23" viewBox="0 0 29 23" fill="none" xmlns="http://www.w3.org/2000/svg">
<g clip-path="url(#clip0_12_15)">
<path d="M18.2204 21.1782V21.091H12.8638V21.1782L12.8647 21.2213C12.8647 21.7045 12.6774 22.1678 12.344 22.5095C12.0106 22.8511 11.5584 23.0431 11.087 23.0431C10.6155 23.0431 10.1633 22.8511 9.82989 22.5095C9.4965 22.1678 9.3092 21.7045 9.3092 21.2213L9.31014 21.1762V21.091H8.69947C8.43912 21.091 8.1866 20.9997 7.98383 20.8324C7.78106 20.665 7.64024 20.4316 7.58476 20.1709L7.58382 20.1633L4.01429 2.84332L0.964714 2.32295C0.674273 2.26283 0.418011 2.08936 0.250069 1.8392C0.0821275 1.58903 0.0156588 1.28176 0.0647061 0.9823C0.113753 0.682841 0.274475 0.414647 0.512916 0.23438C0.751357 0.054113 1.04884 -0.0241089 1.34252 0.0162402L1.33691 0.0152819L5.15332 0.666949C5.6181 0.748407 5.98282 1.10874 6.08007 1.57066L6.08101 1.57832L6.72814 4.70632L17.8613 5.65699C17.7926 6.03177 17.7575 6.41223 17.7566 6.79357V6.79741C17.7566 7.18266 17.7893 7.56024 17.8529 7.92728L17.8473 7.88895C17.5409 7.98791 17.2808 8.19907 17.1168 8.4821C16.9527 8.76513 16.8962 9.10019 16.9579 9.42324L16.957 9.41462L17.6294 14.3884C17.6705 14.7075 17.8127 14.9873 18.0203 15.1982C18.2092 15.3908 18.4682 15.5115 18.7553 15.5144H18.7563C18.8198 15.5144 18.8825 15.5077 18.9424 15.4962L18.9358 15.4972C19.2547 15.4118 19.5299 15.2054 19.7058 14.9198C19.8817 14.6342 19.9451 14.2907 19.8831 13.959L19.8841 13.9677L19.5175 11.2632C20.0993 11.8836 20.7976 12.3769 21.5703 12.7136C22.343 13.0502 23.1741 13.2232 24.0138 13.2221C24.054 13.2221 24.0942 13.2221 24.1335 13.2163L24.2204 13.2115L23.5948 16.9509C23.5798 17.0416 23.5341 17.1239 23.4656 17.1833C23.3972 17.2428 23.3105 17.2755 23.2207 17.2758H9.31949L9.62529 18.7584H22.8644C23.159 18.7703 23.4377 18.8986 23.6421 19.1164C23.8465 19.3341 23.9608 19.6245 23.961 19.9266C23.9613 20.2288 23.8474 20.5193 23.6434 20.7374C23.4394 20.9555 23.1609 21.0842 22.8663 21.0967H21.7759V21.1839C21.7759 21.6671 21.5886 22.1305 21.2552 22.4721C20.9218 22.8138 20.4696 23.0057 19.9982 23.0057C19.5267 23.0057 19.0745 22.8138 18.7411 22.4721C18.4077 22.1305 18.2204 21.6671 18.2204 21.1839V21.1782ZM19.4904 21.1782C19.4906 21.2497 19.5052 21.3204 19.5335 21.3858C19.5617 21.4512 19.6029 21.5099 19.6545 21.5581C19.706 21.6063 19.7667 21.6431 19.8328 21.666C19.899 21.6889 19.969 21.6975 20.0385 21.6913C20.108 21.685 20.1756 21.664 20.2367 21.6297C20.2979 21.5953 20.3515 21.5482 20.394 21.4915C20.4366 21.4348 20.4672 21.3697 20.4838 21.3002C20.5005 21.2308 20.503 21.1585 20.491 21.0881V21.091H19.4997C19.4947 21.1197 19.4922 21.1489 19.4922 21.1782H19.4904ZM10.5801 21.1782C10.5803 21.2497 10.595 21.3204 10.6232 21.3858C10.6515 21.4512 10.6927 21.5099 10.7442 21.5581C10.7957 21.6063 10.8565 21.6431 10.9226 21.666C10.9887 21.6889 11.0587 21.6975 11.1283 21.6913C11.1978 21.685 11.2653 21.664 11.3265 21.6297C11.3877 21.5953 11.4412 21.5482 11.4838 21.4915C11.5263 21.4348 11.5569 21.3697 11.5736 21.3002C11.5903 21.2308 11.5927 21.1585 11.5807 21.0881V21.091H10.5885C10.5838 21.1191 10.5816 21.1477 10.582 21.1762V21.1782H10.5801ZM14.1964 7.88128C13.8774 7.96648 13.602 8.17284 13.4261 8.45849C13.2502 8.74414 13.1869 9.08769 13.2491 9.41941L13.2481 9.41078L13.9205 14.3845C13.9617 14.7037 14.1038 14.9835 14.3114 15.1943C14.5003 15.387 14.7594 15.5077 15.0464 15.5106H15.0474C15.111 15.5106 15.1736 15.5039 15.2335 15.4924L15.2269 15.4933C15.5458 15.4079 15.821 15.2015 15.9969 14.9159C16.1728 14.6303 16.2362 14.2869 16.1743 13.9552L16.1752 13.9638L15.5028 8.99007C15.464 8.6831 15.3265 8.39815 15.1119 8.18028C14.9166 7.98039 14.6529 7.86657 14.3769 7.86307H14.3759C14.3114 7.86307 14.2488 7.86978 14.188 7.88224L14.1945 7.88128H14.1964ZM10.4875 7.88128C10.1675 7.96608 9.89112 8.1729 9.71488 8.45948C9.53864 8.74607 9.47582 9.09079 9.53925 9.42324L9.53832 9.41462L10.2107 14.3884C10.2519 14.7075 10.394 14.9873 10.6016 15.1982C10.7905 15.3908 11.0495 15.5115 11.3366 15.5144H11.3376C11.4012 15.5144 11.4638 15.5077 11.5237 15.4962L11.5171 15.4972C11.8363 15.4122 12.1119 15.2059 12.288 14.9202C12.4641 14.6345 12.5275 14.2909 12.4654 13.959L12.4663 13.9677L11.793 8.99103C11.7542 8.68406 11.6167 8.3991 11.4021 8.18124C11.207 7.981 10.9431 7.86712 10.6671 7.86403H10.6661C10.6025 7.86403 10.5408 7.87074 10.481 7.88224L10.4875 7.88128ZM18.7067 6.80028C18.7069 5.35662 19.2668 3.97219 20.2631 2.95155C20.7565 2.44617 21.3421 2.04533 21.9866 1.77189C22.6311 1.49845 23.3218 1.35778 24.0194 1.35791C24.7169 1.35803 25.4076 1.49895 26.052 1.77262C26.6964 2.04629 27.2819 2.44735 27.7751 2.9529C28.2682 3.45845 28.6594 4.05859 28.9262 4.71905C29.193 5.37952 29.3303 6.08737 29.3302 6.8022C29.3298 8.24612 28.7697 9.63074 27.7731 10.6515C26.7766 11.6722 25.4251 12.2454 24.0161 12.2451C22.6071 12.2447 21.2559 11.6707 20.2599 10.6494C19.2638 9.62817 18.7044 8.24324 18.7048 6.79932L18.7067 6.80028ZM20.2282 6.80028C20.2282 7.31035 20.3262 7.81543 20.5167 8.28667C20.7072 8.75792 20.9864 9.1861 21.3383 9.54677C21.6903 9.90745 22.1081 10.1936 22.568 10.3887C23.0278 10.5839 23.5207 10.6844 24.0184 10.6844C24.5162 10.6844 25.009 10.5839 25.4689 10.3887C25.9287 10.1936 26.3466 9.90745 26.6985 9.54677C27.0505 9.1861 27.3297 8.75792 27.5201 8.28667C27.7106 7.81543 27.8087 7.31035 27.8087 6.80028C27.8088 5.76989 27.4095 4.78166 26.6986 4.05297C25.9877 3.32429 25.0234 2.91485 24.018 2.91472C23.0125 2.91459 22.0481 3.32379 21.3371 4.0523C20.626 4.7808 20.2265 5.76894 20.2263 6.79932L20.2282 6.80028ZM23.2581 8.35374V7.57941H22.5025C22.3006 7.57941 22.107 7.49722 21.9643 7.35093C21.8215 7.20463 21.7413 7.00622 21.7413 6.79932C21.7413 6.59243 21.8215 6.39402 21.9643 6.24772C22.107 6.10143 22.3006 6.01924 22.5025 6.01924H23.2581V5.24491C23.2581 5.03802 23.3383 4.8396 23.4811 4.69331C23.6239 4.54701 23.8175 4.46482 24.0194 4.46482C24.2213 4.46482 24.4149 4.54701 24.5576 4.69331C24.7004 4.8396 24.7806 5.03802 24.7806 5.24491V6.01924H25.5362C25.7381 6.01924 25.9317 6.10143 26.0745 6.24772C26.2172 6.39402 26.2974 6.59243 26.2974 6.79932C26.2974 7.00622 26.2172 7.20463 26.0745 7.35093C25.9317 7.49722 25.7381 7.57941 25.5362 7.57941H24.7806V8.35278C24.7806 8.55967 24.7004 8.75809 24.5576 8.90439C24.4149 9.05068 24.2213 9.13287 24.0194 9.13287C23.8175 9.13287 23.6239 9.05068 23.4811 8.90439C23.3383 8.75809 23.2581 8.55967 23.2581 8.35278V8.35374Z" fill="#F54748"/>
</g>
<defs>
<clipPath id="clip0_12_15">
<rect width="29" height="23" fill="white"/>
</clipPath>
</defs>
</svg>
